<?xml version="1.0" encoding="utf-8"?>
<!-- Generator: Adobe Illustrator 24.2.3, SVG Export Plug-In . SVG Version: 6.00 Build 0)  -->
<svg version="1.1" id="Слой_1" xmlns="http://www.w3.org/2000/svg" xmlns:xlink="http://www.w3.org/1999/xlink" x="0px" y="0px"
	 viewBox="0 0 217 140" style="enable-background:new 0 0 217 140;" xml:space="preserve">
<g transform="translate(0.000000,140.000000) scale(0.100000,-0.100000)">
	<path d="M1440,1245v-76l68,3l67,3v70v70l-67,3l-68,3V1245z"/>
	<path d="M1182,1068l3-73h195h195v70v70l-198,3l-198,2L1182,1068z"/>
	<path d="M584,947c-3-8-4-41-2-73l3-59l198-3l198-2l-3,72l-3,73l-193,3C626,960,589,958,584,947z"/>
	<path d="M1017,954c-4-4-7-38-7-76v-68h200h201l-3,73l-3,72l-191,3C1110,959,1021,957,1017,954z"/>
	<path d="M1447,954c-4-4-7-38-7-76v-69l68,3l67,3v70v70l-60,3C1481,960,1451,958,1447,954z"/>
	<path d="M584,766c-3-7-4-40-2-72l3-59l68-3l67-3v76v75h-65C609,780,588,776,584,766z"/>
	<path d="M750,705v-75h200h200v75v75H950H750V705z"/>
	<path d="M1180,705v-75l198,2l197,3v70v70l-197,3l-198,2V705z"/>
	<path d="M584,586c-3-7-4-40-2-72l3-59h195h195l3,73l3,72H785C629,600,588,597,584,586z"/>
	<path d="M1012,528l3-73h195h195l3,73l3,72h-201h-201L1012,528z"/>
	<path d="M1442,528l3-73h65h65v70v70l-68,3l-68,3L1442,528z"/>
	<path d="M772,168c3-70,6-83,21-86s17,6,17,82c0,80-1,86-20,86C770,250,769,245,772,168z"/>
	<path d="M840,165c0-69,3-85,15-85s15,16,15,85s-3,85-15,85S840,234,840,165z"/>
	<path d="M1380,221c0-23-4-28-17-25c-28,8-56-20-56-54c0-46,18-62,67-59l41,3l3,82c3,77,2,82-18,82C1385,250,1380,244,1380,221z
		 M1375,140c0-27-22-39-31-16c-8,22,3,49,19,43C1369,165,1375,153,1375,140z"/>
	<path d="M1784,239c-8-14,11-33,25-25c6,4,11,14,11,22C1820,252,1794,255,1784,239z"/>
	<path d="M82,163c3-65,6-78,21-81c14-3,17,4,17,45v48l33-47c17-26,40-48,50-48c15,0,17,10,17,81s-2,80-17,77c-14-3-18-13-17-46
		c0-23-1-42-2-42c-2,0-17,20-34,45c-19,28-39,45-51,45C81,240,79,234,82,163z"/>
	<path d="M439,163c16-43,35-79,43-81c9-2,21,12,30,35l15,38l16-38c10-22,22-37,29-35c7,3,25,39,40,81c26,73,26,77,8,77
		c-14,0-23-11-31-40c-7-22-15-40-19-40s-12,18-19,40c-9,30-17,40-32,40s-19-5-15-15c3-8,0-29-6-46l-11-32l-16,44c-12,31-23,45-38,47
		C411,241,411,241,439,163z"/>
	<path d="M950,159c0-71,2-80,18-77c9,2,18,12,20,24c2,13,14,23,35,30c27,8,33,14,35,44c4,42-16,60-70,60h-38V159z M1015,185
		c0-10-6-20-12-22c-8-3-13,5-13,22s5,25,13,23C1009,205,1015,195,1015,185z"/>
	<path d="M1688,202c-9-33,7-105,25-116c19-12,47,0,55,24c3,9-2,11-17,7c-18-4-21-1-21,24c0,19,5,29,15,29c8,0,15,5,15,10
		c0,6-7,10-15,10s-15,7-15,15C1730,226,1693,224,1688,202z"/>
	<path d="M273,190c-19-8-23-17-23-49c0-42,18-61,59-61c49,0,70,75,29,104C313,202,305,203,273,190z M318,137c2-19-1-27-13-27
		c-19,0-30,24-21,46C293,179,315,167,318,137z"/>
	<path d="M668,189c-29-16-21-32,12-25c39,7,39-6-1-21c-24-9-30-17-27-35c3-20,9-23,51-23c27-1,50,2,52,5c7,11-16,94-28,102
		C711,202,688,201,668,189z M710,120c0-5-7-10-16-10c-8,0-12,5-9,10c3,6,10,10,16,10C706,130,710,126,710,120z"/>
	<path d="M1112,193l-33-4l3-52c2-40,7-53,21-55c13-3,17,4,17,31c0,26,6,39,25,51c22,15,27,39,7,34C1148,198,1130,195,1112,193z"/>
	<path d="M1203,190c-32-13-35-75-5-97c57-45,124,35,72,87C1248,202,1237,203,1203,190z M1248,137c2-19-1-27-13-27c-19,0-30,24-21,46
		C1223,179,1245,167,1248,137z"/>
	<path d="M1592,189c-20-7-23-15-20-50c3-48,22-65,61-55c37,9,36,38,0,34c-20-2-28,2-31,16c-5,24,16,46,27,28c8-13,41-6,41,9
		c0,9-33,29-47,28C1619,199,1605,195,1592,189z"/>
	<path d="M1862,184c-43-30-20-104,33-104s76,74,33,104c-12,9-27,16-33,16S1874,193,1862,184z M1910,140c0-20-5-30-15-30
		s-15,10-15,30s5,30,15,30S1910,160,1910,140z"/>
	<path d="M2002,193l-33-4l3-52c2-40,7-53,21-55c14-3,17,4,17,37c0,30,4,41,15,41s15-11,15-41c0-33,3-40,18-37c24,4,29,79,7,102
		c-9,9-19,15-23,14C2038,198,2020,195,2002,193z"/>
	<path d="M1440,146c0-52,12-64,63-64h37v54c0,41-4,54-15,54c-9,0-15-9-15-24c0-13-3-31-6-40c-11-29-24-16-24,24c0,33-3,40-20,40
		S1440,183,1440,146z"/>
	<path d="M1780,135c0-48,2-55,20-55s20,7,20,55s-2,55-20,55S1780,183,1780,135z"/>
</g>
</svg>
